<?xml version="1.0" encoding="UTF-8"?>
<!DOCTYPE svg PUBLIC "-//W3C//DTD SVG 1.1//EN" "http://www.w3.org/Graphics/SVG/1.1/DTD/svg11.dtd">
<!-- Creator: CorelDRAW -->
<svg xmlns="http://www.w3.org/2000/svg" xml:space="preserve" width="1.70666in" height="1.70666in" version="1.1" style="shape-rendering:geometricPrecision; text-rendering:geometricPrecision; image-rendering:optimizeQuality; fill-rule:evenodd; clip-rule:evenodd"
viewBox="0 0 1706.66 1706.66"
 xmlns:xlink="http://www.w3.org/1999/xlink"
 xmlns:xodm="http://www.corel.com/coreldraw/odm/2003">
 <defs>
  <style type="text/css">
   <![CDATA[
    .fil3 {fill:#0E9AA7}
    .fil4 {fill:#333333}
    .fil1 {fill:#CED07D}
    .fil0 {fill:#FE6F69}
    .fil2 {fill:#FFCB5B}
   ]]>
  </style>
 </defs>
 <g id="Layer_x0020_1">
  <metadata id="CorelCorpID_0Corel-Layer"/>
  <path class="fil0" d="M860.34 865.21c0,-28.16 42.55,-20 82.5,-20 26.33,0 26.32,40 0,40 -39.97,0 -82.5,8.17 -82.5,-20zm225.94 -186.67c99.49,0 141.2,127.8 61.04,186.67 80.17,58.88 38.42,186.67 -61.04,186.67l-68.97 0c-11.04,0 -20,-8.97 -20,-20l0 -333.33c0,-11.04 8.97,-20 20,-20l68.97 0zm-260.45 126.77l0 226.56c0.01,26.35 -39.99,26.31 -39.99,0l0 -118.39 -126.33 0 0 118.39c0,26.33 -40,26.32 -40,0l-0 -226.56c0,-69.9 46.28,-126.77 103.17,-126.77 56.89,0 103.16,56.88 103.16,126.77zm-305.31 -781.98l0 1366.73 818.06 0 0 -1366.73 -491.47 0 0 297.04c0,19.74 -25.69,27.35 -36.58,11.17l-90.18 -133.89 -90.18 133.89c-10.95,16.25 -36.59,8.52 -36.59,-11.17l0 -297.04 -73.06 0z"/>
  <path class="fil1" d="M633.58 254.87c101.24,-150.3 72.31,-150.3 173.54,0l0 -231.54 -173.54 0 0 231.54z"/>
  <path class="fil2" d="M480.53 1390.06l0 -1366.73 -12.89 0c-73.28,0 -132.9,59.63 -132.9,132.92l0 1282.24c45.13,-48.8 89.45,-48.43 145.8,-48.43z"/>
  <path class="fil3" d="M1338.6 1430.05l-893.91 0.02c-60.15,0 -109.61,48.93 -109.96,110.24 0,60.36 49.33,109.68 109.96,109.68l893.91 0 0 -49.96 -748.8 0c-26.33,0 -26.33,-40 0,-40l748.8 0 0 -40 -748.8 0c-26.33,0 -26.33,-40 0,-40l748.8 0 0 -49.98z"/>
  <path class="fil4" d="M1375.26 1706.66l-913.91 0c-83.52,0 -151.11,-68.32 -149.93,-152.62 1.47,-81.28 68.73,-147.31 149.93,-147.31l913.91 0c11.04,0 20,8.97 20,20l0 259.94c0.02,11.04 -8.96,20 -20,20zm-913.91 -259.93c-60.15,0 -109.61,48.93 -109.96,110.24 0,60.36 49.33,109.68 109.96,109.68l893.91 0 0 -219.93 -893.91 0.02z"/>
  <path class="fil4" d="M331.39 1574.33c-11.04,0 -20,-8.97 -20,-20l0 -1381.42c0,-95.35 77.55,-172.91 172.9,-172.91l890.96 0c11.04,0 20,8.96 20,20l0 1406.72c0,26.33 -40,26.32 -40,0l0 -1386.72 -870.95 0c-73.28,0 -132.9,59.63 -132.9,132.92l0 1381.41c-0.01,11.06 -8.96,20.02 -20.01,20.02z"/>
  <path class="fil4" d="M1375.26 1616.69l-768.8 0c-26.33,0 -26.33,-40 0,-40l768.8 0c26.32,0 26.33,40 0,40z"/>
  <path class="fil4" d="M1375.26 1536.69l-768.8 0c-26.33,0 -26.33,-40 0,-40l768.8 0c26.32,0 26.33,40 0,40z"/>
  <path class="fil4" d="M843.78 357.02c-6.53,0 -12.8,-3.2 -16.58,-8.82l-90.18 -133.89 -90.18 133.89c-10.95,16.25 -36.59,8.52 -36.59,-11.17l0 -317.03c0,-26.33 40,-26.33 40,0l0 251.53c101.24,-150.3 72.31,-150.3 173.54,0l0 -251.53c0,-26.33 40,-26.33 40,0l0 317.03c0,11.05 -8.96,19.98 -20,19.98z"/>
  <path class="fil4" d="M822.51 1068.54c-11.04,0 -20,-8.97 -20,-20l0 -226.56c0,-47.04 -28.93,-86.78 -63.17,-86.78 -34.24,0 -63.17,39.74 -63.17,86.78l0 226.56c0,26.33 -40,26.32 -40,0l-0 -226.56c0,-69.9 46.28,-126.77 103.17,-126.77 56.89,0 103.16,56.88 103.16,126.77l0 226.56c0.01,11.04 -8.94,20 -19.99,20z"/>
  <path class="fil4" d="M822.51 930.16l-166.33 0c-26.33,0 -26.33,-40 0,-40l166.33 0c26.32,0 26.33,40 0,40z"/>
  <path class="fil4" d="M1102.95 1068.54l-68.97 0c-11.04,0 -20,-8.97 -20,-20l0 -166.67c0,-11.04 8.97,-20 20,-20l68.97 0c56.99,0 103.33,46.36 103.33,103.33 0,56.97 -46.36,103.33 -103.33,103.33zm-48.97 -40.01l48.96 0c83.36,0 83.36,-126.67 0,-126.67l-48.96 0 0 126.67z"/>
  <path class="fil4" d="M1102.95 901.88l-68.97 0c-11.04,0 -20,-8.97 -20,-20l0 -166.67c0,-11.04 8.97,-20 20,-20l68.97 0c56.99,0 103.33,46.35 103.33,103.33 0,56.98 -46.36,103.33 -103.33,103.33zm-48.97 -40.01l48.96 0c83.36,0 83.36,-126.67 0,-126.67l-48.96 0 0 126.67z"/>
  <path class="fil4" d="M959.5 901.88c-39.97,0 -82.5,8.17 -82.5,-20 0,-28.16 42.55,-20 82.5,-20 26.33,0 26.32,40 0,40z"/>
  <path class="fil0" d="M676.18 821.98l0 68.18 126.33 0 0 -68.18c0,-47.04 -28.93,-86.78 -63.17,-86.78 -34.24,0 -63.17,39.74 -63.17,86.78z"/>
  <path class="fil0" d="M1053.98 735.2l0 126.67 48.96 0c83.36,0 83.36,-126.67 0,-126.67l-48.96 0z"/>
  <path class="fil0" d="M1102.95 901.88l-48.97 -0.01 0 126.67 48.96 0c83.36,0 83.36,-126.66 0.02,-126.66z"/>
  <path class="fil4" d="M517.19 1446.73c-11.04,0 -20,-8.97 -20,-20l0 -1406.72c0,-26.33 40,-26.33 40,0l0 1406.72c0,11.03 -8.96,20 -20,20z"/>
 </g>
</svg>
