<?xml version="1.0" encoding="UTF-8" standalone="no"?> <svg width="512" height="512" viewBox="0 0 512 512" fill="none" xmlns="http://www.w3.org/2000/svg">
<g clip-path="url(#clip0_50:167)">
<path d="M427.395 170.667C433.539 170.667 439.554 172.436 444.719 175.762C449.885 179.088 453.984 183.832 456.527 189.425L497.509 279.586C500.029 285.131 501.333 291.151 501.333 297.242V341.333C501.333 344.135 500.781 346.909 499.709 349.497C498.637 352.085 497.066 354.437 495.085 356.418C493.104 358.399 490.752 359.971 488.164 361.043C485.576 362.115 482.802 362.667 480 362.667H53.333C50.5314 362.667 47.7573 362.115 45.169 361.043C42.5807 359.971 40.2289 358.399 38.2479 356.418C36.267 354.437 34.6956 352.085 33.6236 349.497C32.5516 346.909 31.9999 344.135 32 341.333V170.667H427.395Z" fill="#00CF66"/>
<path d="M467.394 213.333H405.333C402.504 213.333 399.791 214.457 397.791 216.458C395.791 218.458 394.667 221.171 394.667 224V266.667C394.667 269.496 395.791 272.209 397.791 274.21C399.792 276.21 402.505 277.334 405.334 277.334H496.486L467.394 213.333Z" fill="#EAEFF0"/>
<path d="M32 256V128C32 122.342 34.2476 116.916 38.2483 112.915C42.249 108.915 47.6751 106.667 53.333 106.667H320C325.658 106.667 331.084 108.915 335.085 112.915C339.085 116.916 341.333 122.342 341.333 128V298.667C341.333 301.468 340.781 304.243 339.709 306.831C338.637 309.419 337.066 311.771 335.085 313.752C333.104 315.733 330.752 317.304 328.164 318.376C325.576 319.448 322.801 320 320 320H32V256Z" fill="#EAEFF0"/>
<path d="M117.333 405.334C140.897 405.334 160 386.231 160 362.667C160 339.103 140.897 320 117.333 320C93.7687 320 74.666 339.103 74.666 362.667C74.666 386.231 93.7687 405.334 117.333 405.334Z" fill="#D9E1E2"/>
<path d="M394.667 405.334C418.231 405.334 437.334 386.231 437.334 362.667C437.334 339.103 418.231 320 394.667 320C371.103 320 352 339.103 352 362.667C352 386.231 371.103 405.334 394.667 405.334Z" fill="#D9E1E2"/>
<path d="M507.219 275.177L466.234 185.01C462.836 177.56 457.37 171.242 450.486 166.809C443.601 162.375 435.588 160.012 427.4 160H352V128C351.991 119.516 348.616 111.382 342.617 105.383C336.618 99.3837 328.484 96.0093 320 96H53.333C44.8489 96.0093 36.715 99.3837 30.7158 105.383C24.7167 111.382 21.3423 119.516 21.333 128V256C21.3194 257.409 21.5852 258.808 22.1151 260.114C22.645 261.42 23.4285 262.608 24.4204 263.609C25.4122 264.611 26.5927 265.406 27.8936 265.948C29.1945 266.491 30.59 266.77 31.9995 266.77C33.409 266.77 34.8045 266.491 36.1054 265.948C37.4063 265.406 38.5868 264.611 39.5787 263.609C40.5705 262.608 41.354 261.42 41.8839 260.114C42.4138 258.808 42.6797 257.409 42.666 256V128C42.6692 125.172 43.7941 122.461 45.7938 120.461C47.7936 118.461 50.5049 117.336 53.333 117.333H320C322.828 117.336 325.539 118.461 327.539 120.461C329.539 122.461 330.664 125.172 330.667 128V298.667C330.663 301.495 329.538 304.206 327.538 306.205C325.539 308.204 322.828 309.329 320 309.333H192C189.189 309.36 186.502 310.496 184.524 312.493C182.546 314.491 181.436 317.188 181.436 320C181.436 322.811 182.546 325.508 184.524 327.506C186.502 329.503 189.189 330.639 192 330.666H320C328.484 330.657 336.618 327.282 342.617 321.283C348.616 315.284 351.991 307.15 352 298.666V181.333H427.4C431.495 181.339 435.502 182.52 438.945 184.737C442.388 186.954 445.122 190.113 446.822 193.838L450.835 202.666H405.335C399.678 202.672 394.255 204.921 390.255 208.921C386.256 212.92 384.006 218.343 384 224V266.667C384.006 272.323 386.255 277.746 390.254 281.746C394.254 285.745 399.677 287.994 405.333 288H489.133C490.101 290.987 490.619 294.101 490.671 297.24V341.334C490.667 344.162 489.541 346.874 487.541 348.873C485.54 350.873 482.828 351.997 480 352H446.922C444.463 339.956 437.919 329.131 428.397 321.357C418.875 313.582 406.96 309.336 394.667 309.336C382.374 309.336 370.459 313.582 360.937 321.357C351.415 329.131 344.871 339.956 342.412 352H169.589C167.13 339.956 160.586 329.131 151.064 321.357C141.542 313.582 129.627 309.336 117.334 309.336C105.041 309.336 93.1261 313.582 83.6041 321.357C74.0821 329.131 67.5381 339.956 65.079 352H53.333C50.5051 351.996 47.794 350.871 45.7944 348.872C43.7948 346.872 42.6697 344.161 42.666 341.333V330.667C45.4771 330.64 48.1637 329.504 50.1419 327.507C52.12 325.509 53.2297 322.812 53.2297 320C53.2297 317.189 52.12 314.492 50.1419 312.494C48.1637 310.497 45.4771 309.361 42.666 309.334H10.666C7.85497 309.361 5.16831 310.497 3.19016 312.494C1.21201 314.492 0.102295 317.189 0.102295 320C0.102295 322.812 1.21201 325.509 3.19016 327.507C5.16831 329.504 7.85497 330.64 10.666 330.667H21.333V341.334C21.3423 349.818 24.7167 357.952 30.7158 363.951C36.715 369.95 44.8489 373.325 53.333 373.334H65.078C67.5371 385.378 74.0811 396.203 83.6031 403.977C93.1251 411.752 105.04 415.998 117.333 415.998C129.626 415.998 141.541 411.752 151.063 403.977C160.585 396.203 167.129 385.378 169.588 373.334H342.411C344.87 385.378 351.414 396.203 360.936 403.977C370.458 411.752 382.373 415.998 394.666 415.998C406.959 415.998 418.874 411.752 428.396 403.977C437.918 396.203 444.462 385.378 446.921 373.334H480C488.484 373.325 496.618 369.95 502.617 363.951C508.616 357.952 511.991 349.818 512 341.334V297.24C512.012 289.627 510.382 282.102 507.219 275.177V275.177ZM117.333 394.667C111.004 394.667 104.817 392.79 99.5548 389.274C94.2924 385.758 90.1909 380.76 87.7689 374.913C85.3469 369.066 84.7132 362.631 85.9479 356.424C87.1826 350.217 90.2303 344.515 94.7056 340.04C99.1809 335.564 104.883 332.517 111.09 331.282C117.298 330.047 123.732 330.681 129.579 333.103C135.426 335.525 140.424 339.626 143.94 344.889C147.456 350.151 149.333 356.338 149.333 362.667C149.324 371.151 145.949 379.285 139.95 385.284C133.951 391.283 125.817 394.658 117.333 394.667V394.667ZM394.666 394.667C388.337 394.667 382.15 392.79 376.888 389.274C371.625 385.758 367.524 380.76 365.102 374.913C362.68 369.066 362.046 362.631 363.281 356.424C364.516 350.217 367.563 344.515 372.039 340.04C376.514 335.564 382.216 332.517 388.423 331.282C394.63 330.047 401.065 330.681 406.912 333.103C412.759 335.525 417.757 339.626 421.273 344.889C424.789 350.151 426.666 356.338 426.666 362.667C426.657 371.151 423.282 379.285 417.284 385.284C411.285 391.283 403.151 394.657 394.667 394.667H394.666ZM405.333 224H460.527L479.921 266.667H405.333V224Z" fill="black"/>
<path d="M10.667 298.667H64C66.811 298.64 69.4977 297.504 71.4758 295.507C73.454 293.509 74.5637 290.812 74.5637 288C74.5637 285.189 73.454 282.492 71.4758 280.494C69.4977 278.497 66.811 277.361 64 277.334H10.667C7.85595 277.361 5.16929 278.497 3.19114 280.494C1.21298 282.492 0.103271 285.189 0.103271 288C0.103271 290.812 1.21298 293.509 3.19114 295.507C5.16929 297.504 7.85595 298.64 10.667 298.667V298.667Z" fill="black"/>
<path d="M186.667 138.667C183.838 138.667 181.125 139.791 179.125 141.791C177.124 143.791 176 146.504 176 149.333V159.825C173.211 160.549 170.503 161.555 167.917 162.825C156.453 168.625 149.334 178.963 149.334 189.804C149.334 210.492 169.147 218.018 178.673 221.632C180.053 222.158 181.314 222.632 182.361 223.093C183.887 223.762 185.642 224.439 187.528 225.161C197.997 229.161 202.669 231.799 202.669 236.861C202.669 239.077 200.304 242.517 195.789 244.804C192.589 246.421 181.044 250.853 166.32 240.033C164.041 238.357 161.189 237.656 158.393 238.083C155.596 238.51 153.084 240.03 151.408 242.309C149.733 244.589 149.032 247.44 149.458 250.237C149.885 253.033 151.406 255.545 153.685 257.221C160.306 262.181 167.916 265.658 176 267.417V277.333C175.986 278.742 176.252 280.141 176.782 281.447C177.312 282.753 178.096 283.941 179.087 284.942C180.079 285.944 181.26 286.739 182.561 287.281C183.861 287.824 185.257 288.103 186.666 288.103C188.076 288.103 189.472 287.824 190.772 287.281C192.073 286.739 193.254 285.944 194.246 284.942C195.237 283.941 196.021 282.753 196.551 281.447C197.081 280.141 197.347 278.742 197.333 277.333V266.886C200.124 266.146 202.832 265.125 205.416 263.838C216.88 258.042 224 247.7 224 236.862C224 216.262 205.224 209.086 195.135 205.232C193.619 204.651 192.198 204.115 190.974 203.576C189.63 202.982 188.021 202.365 186.245 201.691C176.145 197.855 170.667 194.824 170.667 189.806C170.667 187.59 173.032 184.15 177.547 181.863C180.747 180.251 192.297 175.811 207.016 186.634C209.296 188.288 212.138 188.973 214.922 188.539C217.706 188.106 220.204 186.588 221.873 184.318C223.542 182.049 224.245 179.211 223.828 176.424C223.412 173.638 221.91 171.13 219.651 169.447C213.026 164.507 205.414 161.054 197.333 159.324V149.335C197.333 147.934 197.057 146.547 196.521 145.253C195.985 143.959 195.2 142.783 194.209 141.792C193.219 140.801 192.043 140.016 190.749 139.479C189.455 138.943 188.068 138.667 186.667 138.667Z" fill="black"/>
</g>
<defs>
<clipPath id="clip0_50:167">
<rect width="512" height="512" fill="white"/>
</clipPath>
</defs>
</svg>
